<svg width="52" height="28" viewBox="0 0 52 28" fill="none" xmlns="http://www.w3.org/2000/svg">
<g id="Payment method icon">
<rect x="1" y="0.5" width="50" height="27" rx="1.5" fill="white"/>
<rect x="1" y="0.5" width="50" height="27" rx="1.5" stroke="#F2F4F7"/>
<g id="Mastercard">
<path id="Left" fill-rule="evenodd" clip-rule="evenodd" d="M25.6759 19.6342C23.9407 20.7986 21.6898 21.5015 19.2302 21.5015C13.742 21.5015 9.29297 18.0019 9.29297 13.6848C9.29297 9.3678 13.742 5.86816 19.2302 5.86816C21.6898 5.86816 23.9407 6.57108 25.6759 7.73546C27.4112 6.57108 29.6621 5.86816 32.1217 5.86816C37.6099 5.86816 42.0589 9.3678 42.0589 13.6848C42.0589 18.0019 37.6099 21.5015 32.1217 21.5015C29.6621 21.5015 27.4112 20.7986 25.6759 19.6342Z" fill="#ED0006"/>
<path id="Right" fill-rule="evenodd" clip-rule="evenodd" d="M25.6758 19.6342C27.8124 18.2005 29.1672 16.0671 29.1672 13.6848C29.1672 11.3025 27.8124 9.16918 25.6758 7.73546C27.411 6.57108 29.6619 5.86816 32.1215 5.86816C37.6097 5.86816 42.0588 9.3678 42.0588 13.6848C42.0588 18.0019 37.6097 21.5015 32.1215 21.5015C29.6619 21.5015 27.411 20.7986 25.6758 19.6342Z" fill="#F9A000"/>
<path id="Middle" fill-rule="evenodd" clip-rule="evenodd" d="M25.676 19.634C27.8126 18.2003 29.1674 16.067 29.1674 13.6847C29.1674 11.3024 27.8126 9.16907 25.676 7.73535C23.5394 9.16907 22.1846 11.3024 22.1846 13.6847C22.1846 16.067 23.5394 18.2003 25.676 19.634Z" fill="#FF5E00"/>
</g>
</g>
</svg>
