<svg width="51" height="28" viewBox="0 0 51 28" fill="none" xmlns="http://www.w3.org/2000/svg">
<g id="Payment method icon">
<rect x="0.5" y="0.5" width="50" height="27" rx="1.5" fill="white"/>
<rect x="0.5" y="0.5" width="50" height="27" rx="1.5" stroke="#F2F4F7"/>
<g id="Maestro">
<path id="Left" d="M28.2222 13.6569C28.2222 17.9776 23.8728 21.4803 18.5076 21.4803C13.1424 21.4803 8.79297 17.9776 8.79297 13.6569C8.79297 9.33614 13.1424 5.8335 18.5076 5.8335C23.8728 5.8335 28.2222 9.33614 28.2222 13.6569Z" fill="#ED0006"/>
<path id="Right" d="M40.8248 13.6569C40.8248 17.9776 36.4754 21.4803 31.1101 21.4803C25.7449 21.4803 21.3955 17.9776 21.3955 13.6569C21.3955 9.33614 25.7449 5.8335 31.1101 5.8335C36.4754 5.8335 40.8248 9.33614 40.8248 13.6569Z" fill="#0099DF"/>
<path id="Middle" fill-rule="evenodd" clip-rule="evenodd" d="M24.8092 19.6115C26.898 18.1766 28.2224 16.0414 28.2224 13.6571C28.2224 11.2728 26.898 9.13759 24.8092 7.70264C22.7205 9.13759 21.396 11.2728 21.396 13.6571C21.396 16.0414 22.7205 18.1766 24.8092 19.6115Z" fill="#6C6BBD"/>
</g>
</g>
</svg>
