<svg width="51" height="28" viewBox="0 0 51 28" fill="none" xmlns="http://www.w3.org/2000/svg">
<g id="Payment method icon">
<rect x="0.5" y="0.5" width="50" height="27" rx="1.5" fill="white"/>
<rect x="0.5" y="0.5" width="50" height="27" rx="1.5" stroke="#F2F4F7"/>
<g id="PayPal">
<path id="Fill 7" fill-rule="evenodd" clip-rule="evenodd" d="M21.4172 21.5228L21.7406 19.8322L21.02 19.8184H17.5791L19.9704 7.34249C19.9779 7.30471 20.002 7.26964 20.0371 7.24469C20.0725 7.21974 20.1175 7.20605 20.1647 7.20605H25.9666C27.8929 7.20605 29.2222 7.5358 29.9161 8.18673C30.2414 8.49209 30.4487 8.81129 30.549 9.16241C30.6542 9.53093 30.6559 9.97116 30.5533 10.5082L30.5459 10.5472V10.8914L30.8712 11.0431C31.1452 11.1627 31.363 11.2995 31.53 11.4562C31.8082 11.7174 31.9883 12.0493 32.0643 12.4426C32.143 12.8472 32.117 13.3287 31.9883 13.8739C31.8398 14.5009 31.5998 15.047 31.2756 15.4938C30.9776 15.9055 30.5978 16.2471 30.1468 16.5117C29.7163 16.7632 29.2048 16.9541 28.6265 17.0762C28.066 17.1963 27.427 17.2569 26.7262 17.2569H26.2747C25.9519 17.2569 25.6383 17.3525 25.3921 17.524C25.1452 17.6991 24.982 17.9383 24.9319 18.1999L24.8978 18.3521L24.3262 21.3321L24.3004 21.4414C24.2934 21.4761 24.2817 21.4933 24.2643 21.505C24.2489 21.5157 24.2267 21.5228 24.2051 21.5228H21.4172Z" fill="#28356A"/>
<path id="Fill 8" fill-rule="evenodd" clip-rule="evenodd" d="M31.18 10.5874C31.1628 10.6785 31.1429 10.7716 31.1207 10.8672C30.3556 14.0997 27.7378 15.2163 24.3946 15.2163H22.6923C22.2834 15.2163 21.9388 15.4605 21.8752 15.7924L20.7568 21.6296C20.7154 21.8475 20.9195 22.0438 21.1867 22.0438H24.2059C24.5633 22.0438 24.8671 21.8301 24.9234 21.54L24.953 21.4139L25.5215 18.4456L25.558 18.2828C25.6136 17.9917 25.9181 17.7779 26.2755 17.7779H26.727C29.6522 17.7779 31.9421 16.8008 32.6114 13.9729C32.8909 12.7917 32.7462 11.8053 32.0064 11.1116C31.7826 10.9025 31.5048 10.7288 31.18 10.5874Z" fill="#298FC2"/>
<path id="Fill 9" fill-rule="evenodd" clip-rule="evenodd" d="M30.379 10.3246C30.262 10.2965 30.1414 10.2711 30.0177 10.2482C29.8933 10.2258 29.766 10.206 29.6348 10.1886C29.1759 10.1276 28.6729 10.0986 28.1342 10.0986H23.5867C23.4746 10.0986 23.3682 10.1194 23.2731 10.1571C23.0632 10.2401 22.9075 10.4034 22.8697 10.6034L21.9022 15.6452L21.8745 15.7922C21.9381 15.4603 22.2827 15.2161 22.6916 15.2161H24.3939C27.7371 15.2161 30.3549 14.0989 31.12 10.867C31.1429 10.7714 31.1621 10.6783 31.1793 10.5872C30.9857 10.5026 30.7761 10.4304 30.5503 10.3688C30.4945 10.3535 30.437 10.3388 30.379 10.3246Z" fill="#22284F"/>
<path id="Fill 11" fill-rule="evenodd" clip-rule="evenodd" d="M22.8701 10.6035C22.9079 10.4035 23.0636 10.2401 23.2734 10.1577C23.3692 10.1199 23.4749 10.0991 23.587 10.0991H28.1346C28.6732 10.0991 29.1762 10.1282 29.6352 10.1892C29.7663 10.2064 29.8937 10.2264 30.0181 10.2488C30.1418 10.2716 30.2624 10.2971 30.3793 10.3251C30.4374 10.3393 30.4949 10.3541 30.5512 10.3688C30.777 10.4304 30.9868 10.5033 31.1803 10.5872C31.408 9.39271 31.1784 8.5794 30.3935 7.84293C29.5281 7.03205 27.9663 6.68506 25.9678 6.68506H20.1657C19.7575 6.68506 19.4092 6.92926 19.3462 7.26172L16.9295 19.8659C16.8819 20.1152 17.1156 20.3402 17.4212 20.3402H21.0032L22.8701 10.6035Z" fill="#28356A"/>
</g>
</g>
</svg>
