<svg width="52" height="28" viewBox="0 0 52 28" fill="none" xmlns="http://www.w3.org/2000/svg">
<g id="Payment method icon">
<rect x="1" y="0.5" width="50" height="27" rx="1.5" fill="white"/>
<rect x="1" y="0.5" width="50" height="27" rx="1.5" stroke="#F2F4F7"/>
<path id="Stripe" fill-rule="evenodd" clip-rule="evenodd" d="M27.2722 9.49867L24.7411 9.94383V8.26211L27.2722 7.8252V9.49867ZM32.536 10.4302C31.5477 10.4302 30.9124 10.8094 30.5595 11.0732L30.4284 10.5621H28.2099V20.1743L30.7309 19.7374L30.741 17.4044C31.104 17.6187 31.6385 17.9237 32.5259 17.9237C34.331 17.9237 35.9747 16.7366 35.9747 14.1234C35.9646 11.7327 34.3007 10.4302 32.536 10.4302ZM31.9309 16.1101C31.336 16.1101 30.983 15.937 30.741 15.7227L30.7309 12.6642C30.9931 12.4252 31.3561 12.2603 31.9309 12.2603C32.8486 12.2603 33.4839 13.1012 33.4839 14.1811C33.4839 15.2857 32.8587 16.1101 31.9309 16.1101ZM43.9211 14.2058C43.9211 12.0954 42.6707 10.4302 40.2807 10.4302C37.8807 10.4302 36.4286 12.0954 36.4286 14.1893C36.4286 16.6707 38.1429 17.9237 40.6034 17.9237C41.8034 17.9237 42.711 17.7011 43.3967 17.3879V15.7391C42.711 16.0194 41.9245 16.1926 40.9261 16.1926C39.948 16.1926 39.0807 15.9123 38.9698 14.9395H43.901C43.901 14.8941 43.9046 14.7909 43.9088 14.6719L43.9088 14.6713L43.9088 14.6708L43.9088 14.6702L43.9088 14.6697L43.9089 14.6693C43.9145 14.5083 43.9211 14.3192 43.9211 14.2058ZM38.9395 13.4227C38.9395 12.4911 39.6353 12.1037 40.2706 12.1037C40.8857 12.1037 41.5412 12.4911 41.5412 13.4227H38.9395ZM24.7409 10.5704H27.2721V17.7836H24.7409V10.5704ZM21.8672 10.5704L22.0285 11.1804C22.6235 10.2901 23.8033 10.4714 24.126 10.5704V12.4664C23.8134 12.3757 22.805 12.2603 22.21 12.8951V17.7836H19.689V10.5704H21.8672ZM16.9863 8.78145L14.5257 9.21013L14.5156 15.8133C14.5156 17.0334 15.635 17.932 17.1274 17.932C17.9543 17.932 18.5594 17.8083 18.8922 17.6599V15.9865C18.5695 16.0936 16.9762 16.4728 16.9762 15.2528V12.3262H18.8922V10.5703H16.9762L16.9863 8.78145ZM11.0266 12.2191C10.4922 12.2191 10.1695 12.3428 10.1695 12.6643C10.1695 13.0153 10.7248 13.1697 11.4138 13.3613C12.537 13.6736 14.0154 14.0846 14.0216 15.6073C14.0216 17.0829 12.5796 17.932 10.4821 17.932C9.61484 17.932 8.66692 17.7919 7.72909 17.4621V15.5001C8.57616 15.8793 9.64509 16.1596 10.4821 16.1596C11.0468 16.1596 11.4502 16.0359 11.4502 15.6567C11.4502 15.2679 10.8481 15.0902 10.1213 14.8756C9.01445 14.5488 7.61816 14.1366 7.61816 12.7632C7.61816 11.3041 8.97953 10.4302 11.0266 10.4302C11.8636 10.4302 12.6905 10.5374 13.5275 10.8094V12.7467C12.7611 12.4087 11.793 12.2191 11.0266 12.2191Z" fill="#6461FC"/>
</g>
</svg>
