<svg width="32" height="24" viewBox="0 0 32 24" fill="none" xmlns="http://www.w3.org/2000/svg">
<g id="flagpack:gb-ukm" clip-path="url(#clip0_731_1435)">
<mask id="mask0_731_1435" style="mask-type:alpha" maskUnits="userSpaceOnUse" x="0" y="0" width="32" height="24">
<g id="svgIDb">
<path id="Vector" d="M0 0H32V24H0V0Z" fill="white"/>
</g>
</mask>
<g mask="url(#mask0_731_1435)">
<g id="Group">
<path id="Vector_2" fill-rule="evenodd" clip-rule="evenodd" d="M0 0V24H32V0H0Z" fill="#2E42A5"/>
<mask id="mask1_731_1435" style="mask-type:alpha" maskUnits="userSpaceOnUse" x="0" y="0" width="32" height="24">
<g id="svgIDc">
<path id="Vector_3" fill-rule="evenodd" clip-rule="evenodd" d="M0 0V24H32V0H0Z" fill="white"/>
</g>
</mask>
<g mask="url(#mask1_731_1435)">
<g id="Group_2">
<mask id="mask2_731_1435" style="mask-type:alpha" maskUnits="userSpaceOnUse" x="0" y="0" width="32" height="24">
<g id="svgIDd">
<path id="Vector_4" d="M0 0H32V24H0V0Z" fill="white"/>
</g>
</mask>
<g mask="url(#mask2_731_1435)">
<g id="Group_3">
<path id="Vector_5" d="M-3.56299 22.2849L3.47901 25.2639L32.159 3.23789L35.874 -1.18811L28.344 -2.18311L16.646 7.30789L7.23001 13.7039L-3.56299 22.2849Z" fill="white"/>
<path id="Vector_6" d="M-2.59985 24.3719L0.989146 26.0999L34.5401 -1.59912H29.5031L-2.59885 24.3709L-2.59985 24.3719Z" fill="#F50100"/>
<path id="Vector_7" d="M35.563 22.2849L28.521 25.2639L-0.159023 3.23789L-3.87402 -1.18811L3.65598 -2.18311L15.354 7.30789L24.77 13.7039L35.563 22.2849Z" fill="white"/>
<path id="Vector_8" d="M35.3231 23.7827L31.7351 25.5107L17.4491 13.6507L13.2131 12.3267L-4.23193 -1.17334H0.806067L18.2401 12.0067L22.8711 13.5947L35.3231 23.7827Z" fill="#F50100"/>
<mask id="mask3_731_1435" style="mask-type:alpha" maskUnits="userSpaceOnUse" x="-2" y="-2" width="37" height="28">
<g id="svgIDe">
<path id="Vector_9" fill-rule="evenodd" clip-rule="evenodd" d="M19.7781 -2H12.2221V8H-1.97192V16H12.2221V26H19.7781V16H34.0281V8H19.7781V-2Z" fill="white"/>
</g>
</mask>
<g mask="url(#mask3_731_1435)">
<path id="Vector_10" fill-rule="evenodd" clip-rule="evenodd" d="M19.7781 -2H12.2221V8H-1.97192V16H12.2221V26H19.7781V16H34.0281V8H19.7781V-2Z" fill="#F50100"/>
<path id="Vector_11" d="M12.2221 -2V-4H10.2221V-2H12.2221ZM19.7781 -2H21.7781V-4H19.7781V-2ZM12.2221 8V10H14.2221V8H12.2221ZM-1.97192 8V6H-3.97192V8H-1.97192ZM-1.97192 16H-3.97192V18H-1.97192V16ZM12.2221 16H14.2221V14H12.2221V16ZM12.2221 26H10.2221V28H12.2221V26ZM19.7781 26V28H21.7781V26H19.7781ZM19.7781 16V14H17.7781V16H19.7781ZM34.0281 16V18H36.0281V16H34.0281ZM34.0281 8H36.0281V6H34.0281V8ZM19.7781 8H17.7781V10H19.7781V8ZM12.2221 0H19.7781V-4H12.2221V0ZM14.2221 8V-2H10.2221V8H14.2221ZM-1.97192 10H12.2221V6H-1.97192V10ZM0.0280762 16V8H-3.97192V16H0.0280762ZM12.2221 14H-1.97192V18H12.2221V14ZM14.2221 26V16H10.2221V26H14.2221ZM19.7781 24H12.2221V28H19.7781V24ZM17.7781 16V26H21.7781V16H17.7781ZM34.0281 14H19.7781V18H34.0281V14ZM32.0281 8V16H36.0281V8H32.0281ZM19.7781 10H34.0281V6H19.7781V10ZM17.7781 -2V8H21.7781V-2H17.7781Z" fill="white"/>
</g>
</g>
</g>
</g>
</g>
</g>
</g>
</g>
<defs>
<clipPath id="clip0_731_1435">
<rect width="32" height="24" fill="white"/>
</clipPath>
</defs>
</svg>
