<svg width="51" height="28" viewBox="0 0 51 28" fill="none" xmlns="http://www.w3.org/2000/svg">
<g id="Payment method icon">
<rect x="0.5" y="0.5" width="50" height="27" rx="1.5" fill="white"/>
<rect x="0.5" y="0.5" width="50" height="27" rx="1.5" stroke="#F2F4F7"/>
<path id="visa-logo" fill-rule="evenodd" clip-rule="evenodd" d="M15.7549 18.5015H12.7363L10.4727 11.4246C10.3653 11.0991 10.1371 10.8113 9.80158 10.6757C8.96415 10.3348 8.04135 10.0635 7.03467 9.9267V9.65424H11.8974C12.5685 9.65424 13.0718 10.0635 13.1557 10.5388L14.3302 15.6436L17.3473 9.65424H20.282L15.7549 18.5015ZM21.9598 18.5015H19.109L21.4565 9.65424H24.3073L21.9598 18.5015ZM27.9955 12.1052C28.0794 11.6287 28.5828 11.3562 29.17 11.3562C30.0928 11.2878 31.098 11.4246 31.9369 11.7643L32.4402 9.85947C31.6013 9.58701 30.6785 9.4502 29.8411 9.4502C27.0742 9.4502 25.0608 10.6757 25.0608 12.3765C25.0608 13.6704 26.487 14.3497 27.4937 14.759C28.5828 15.1671 29.0022 15.4396 28.9183 15.8477C28.9183 16.4598 28.0794 16.7323 27.242 16.7323C26.2353 16.7323 25.2286 16.5282 24.3073 16.1874L23.8039 18.0934C24.8106 18.4331 25.8997 18.5699 26.9064 18.5699C30.0089 18.6371 31.9369 17.4128 31.9369 15.5752C31.9369 13.2611 27.9955 13.1254 27.9955 12.1052ZM41.914 18.5015L39.6504 9.65424H37.2191C36.7157 9.65424 36.2124 9.9267 36.0446 10.3348L31.853 18.5015H34.7877L35.3735 17.2088H38.9793L39.3148 18.5015H41.914ZM37.6385 12.0368L38.4759 15.3712H36.1285L37.6385 12.0368Z" fill="#172B85"/>
</g>
</svg>
