<svg width="123" height="26" viewBox="0 0 123 26" fill="none" xmlns="http://www.w3.org/2000/svg">
<path d="M10.7479 24.7596L10.7867 24.8512H10.8861H13.7153H13.8147L13.8535 24.7596L23.7396 1.35713L23.8705 1.04732L23.5525 1.15695L20.183 2.31877L20.1209 2.34018L20.0945 2.40031L12.3802 19.9794L4.66585 2.40031L4.63896 2.33903L4.5754 2.31811L1.04691 1.15628L0.733364 1.05304L0.861823 1.35713L10.7479 24.7596ZM25.9053 24.7012V24.8512H26.0553H29.3613H29.5113V24.7012V3V2.90849L29.4299 2.86662L26.1239 1.16538L25.9053 1.05287V1.29876V24.7012ZM34.9028 19.4535L34.9037 19.4555C35.7845 21.2725 37.0434 22.6782 38.6803 23.6678C40.3187 24.6583 42.2859 25.15 44.5751 25.15C46.1179 25.15 47.5562 24.8926 48.8887 24.3765C50.2413 23.8608 51.3727 23.1415 52.2796 22.2171L52.3491 22.1462L52.3111 22.0545L51.1667 19.2993L51.0839 19.1L50.926 19.247C49.9623 20.144 48.9711 20.7967 47.9528 21.2092C46.955 21.5998 45.8614 21.7961 44.6705 21.7961C42.2896 21.7961 40.4928 21.0346 39.2557 19.5277C38.0133 17.9923 37.3821 15.8175 37.3821 12.9834C37.3821 10.1489 38.0135 7.98567 39.2553 6.47276C40.4925 4.96555 42.2893 4.20394 44.6705 4.20394C45.8607 4.20394 46.9536 4.41101 47.951 4.82327L47.951 4.82332L47.9546 4.8247C48.9295 5.19868 50.8781 6.99793 50.8781 10.5V10.8646L51.1347 10.6056L54.1066 7.60557L54.2094 7.50177L54.1083 7.39625C53.9068 7.18583 53.7588 6.87926 53.5764 6.4723C53.5604 6.43677 53.5443 6.4006 53.5279 6.3638C53.3594 5.9861 53.1616 5.54296 52.8706 5.0642C52.2284 4.00779 51.1386 2.78746 48.9037 1.63028L48.8965 1.62655L48.8889 1.62361C47.5564 1.10739 46.118 0.85 44.5751 0.85C42.2859 0.85 40.3187 1.34169 38.6803 2.33222C37.0434 3.32183 35.7845 4.72752 34.9037 6.54453L34.9031 6.54583C34.0439 8.36261 33.6172 10.51 33.6172 12.9834C33.6172 15.4569 34.044 17.615 34.9028 19.4535ZM53.1203 24.6424L53.0312 24.8512H53.2583H56.5961H56.697L56.735 24.7577L59.0175 19.1417H70.1645L72.4786 24.7584L72.5169 24.8512H72.6173H75.9868H76.2142L76.1248 24.6422L66.1115 1.23975L66.0725 1.14876H65.9736H63.2398H63.1407L63.1018 1.23991L53.1203 24.6424ZM78.7718 24.7012V24.9944L79.0095 24.8229L82.0612 22.6217L82.1235 22.5768V22.5V7.40348L94.7581 24.7894L94.803 24.8512H94.8795H97.3271H97.4771V24.7012V1.29876V1.00561L97.2394 1.1771L94.1877 3.37835L94.1255 3.42325V3.5V18.5297L81.5544 1.21064L81.5095 1.14876H81.4331H78.9218H78.7718V1.29876V24.7012ZM102.396 24.7012V24.8512H102.546H110.461C114.176 24.8512 117.059 23.8362 119.087 21.786L118.98 21.6805L119.087 21.786C121.136 19.7139 122.15 16.7721 122.15 12.9834C122.15 9.19511 121.136 6.2641 119.087 4.21401C117.059 2.16383 114.176 1.14876 110.461 1.14876H102.546H102.396V1.29876V24.7012ZM68.9294 16.0533H60.3152L64.6071 5.43683L68.9294 16.0533ZM110.27 21.6633H106.002V4.33672H110.27C113.01 4.33672 115.038 5.06261 116.384 6.48881C117.73 7.91666 118.417 10.0722 118.417 12.9834C118.417 15.9058 117.73 18.0697 116.383 19.5031C115.038 20.9347 113.01 21.6633 110.27 21.6633Z" fill="#2E2E2E" stroke="#2E2E2E" stroke-width="0.3"/>
</svg>
