<svg width="257" height="44" viewBox="0 0 257 44" fill="none" xmlns="http://www.w3.org/2000/svg">
<g id="Frame 4865">
<path id="Vector" d="M256.543 30.7728H248.863V6.53329H242.892L232.681 30.7728H217.975L207.065 6.53329H201.338V30.7728H193.935V0.0284056H212.104L223.314 24.372H227.542L238.297 0.0284056H256.543V30.7728ZM178.153 0.0284056H185.778V30.7728H178.153V0.0284056ZM162.648 0.0284056H170.373V30.7728H154.48C145.556 23.1127 137.51 14.6384 128.93 6.53329H123.892V30.7728H116.544V0.0284056H132.948L157.787 24.3626H162.648V0.0284056ZM108.564 24.5235V30.7728H60.4406V0.00946854L108.564 0C108.542 2.02627 108.576 4.63012 108.564 6.53329H68.4871V12.5932C81.9054 12.6216 95.2904 12.5742 108.564 12.5932V18.814H68.4871V24.5235H108.564ZM37.6217 0.0284056C41.0327 0.12487 44.3369 1.06735 47.13 2.74056C49.9231 4.41377 52.084 6.74518 53.3485 9.4496C55.4462 13.3601 55.4462 17.3653 53.2264 21.5315C48.6871 29.0305 43.3264 30.9432 35.524 31H0.82959V12.7731C3.34899 12.8109 5.64642 12.8488 8.3101 12.7825V24.0312H38.6983C42.3386 24.0312 46.5006 20.1775 47.0445 16.5415C47.5106 12.6026 45.6904 9.10874 42.1611 7.46121C42.1611 7.46121 39.9302 6.25871 37.322 6.25871L0.82959 6.23977V0.0284056H37.6217Z" fill="#999999"/>
</g>
</svg>
