<svg width="241" height="44" viewBox="0 0 241 44" fill="none" xmlns="http://www.w3.org/2000/svg">
<path id="Vector" fill-rule="evenodd" clip-rule="evenodd" d="M80.0324 5.75714C77.7405 5.75714 73.4213 6.26449 71.5712 7.27818C70.8662 7.67245 70.1596 7.78554 69.7194 6.20846H60.8164V29.4072H69.8088V15.3296C69.8088 13.6405 72.2762 11.6131 80.034 11.6131V5.75714H80.0324ZM232.454 7.27818C231.748 7.67245 231.043 7.78554 230.601 6.20846H221.701V29.4072H230.692V15.3296C230.692 13.6405 233.159 11.6131 240.915 11.6131V5.75714C238.625 5.75714 234.304 6.26449 232.454 7.27818ZM173.659 29.3929H183.18V0H173.659V29.3929ZM204.63 24.6219C201.469 24.6596 199.032 23.9485 197.217 22.943L220.167 12.1143C217.677 7.89862 211.221 5.54625 204.015 5.54625C193.414 5.54625 184.816 11.0365 184.816 17.8093C184.816 24.5822 193.414 30.0724 204.015 30.0724C209.764 30.0724 214.924 28.4587 218.441 25.9005L215.033 21.1316C211.683 23.214 209.303 24.5649 204.63 24.6219ZM196.786 12.5718C201.016 10.3203 205.072 10.3763 208.157 11.9534L193.571 18.7191C193.107 16.6999 193.708 14.211 196.786 12.5718ZM198.515 33.8358V33.8215C199.145 33.7523 199.761 33.4405 199.761 32.7477C199.761 32.001 199.035 31.4957 197.203 31.4957H194.383V36.4795H197.569C199.056 36.4795 200.118 36.1138 200.118 35.0746C200.12 34.4165 199.587 33.9397 198.515 33.8358ZM195.123 31.8981H196.823C198.44 31.8981 199.022 32.1263 199.022 32.7488C199.022 33.3509 198.525 33.6973 196.986 33.6973H195.123V31.8981ZM196.998 36.0781H195.123V34.0987H197.084C198.471 34.0987 199.38 34.2505 199.38 35.0746C199.381 35.9396 198.624 36.0781 196.998 36.0781ZM207.434 35.3721C207.412 34.8464 207.356 34.2229 206.437 34.0222C207.334 33.7665 207.705 33.4344 207.705 32.8048C207.705 31.8838 206.761 31.4967 205.051 31.4967H201.995V36.4806H202.731V34.2168H205.051C205.787 34.2168 206.425 34.2861 206.6 34.8271C206.718 35.2071 206.643 36.1413 206.946 36.4806H207.76V36.4327C207.565 36.3339 207.464 36.1271 207.434 35.3721ZM205.029 33.8144H202.731V31.8971H205.07C206.058 31.8971 206.967 32.0764 206.967 32.8242C206.967 33.523 206.122 33.8144 205.029 33.8144ZM212.366 31.4957H211.532L208.466 36.4795H209.224L210.146 34.9157H213.701L214.6 36.4795H215.358L212.366 31.4957ZM210.393 34.5143L211.919 31.8981L213.449 34.5143H210.393ZM221.891 35.8499H221.868L217.361 31.4957H216.527V36.4795H217.262V32.1324H217.283L221.77 36.4795H222.626V31.4957H221.891V35.8499ZM229.823 31.8696C229.097 31.5303 228.283 31.4957 227.417 31.4957H224.751V36.4795H227.417C228.446 36.4795 229.464 36.3828 230.18 35.8703C230.893 35.3721 231.121 34.6386 231.121 33.9815C231.121 33.3162 230.85 32.3474 229.823 31.8696ZM229.084 35.8499C228.489 36.0506 227.917 36.0792 227.253 36.0792H225.487V31.8981H227.253C227.904 31.8981 228.577 31.9256 229.041 32.0855C230.138 32.4584 230.387 33.2541 230.387 33.9815C230.386 34.66 230.124 35.5117 229.084 35.8499ZM52.5131 0.568479L43.1698 15.5456L32.0626 0.455394L20.9553 15.7718L11.435 0.568479H0.858887L20.4274 31.0871L32.2396 14.8702L43.6994 30.974L63.0924 0.568479H52.5131ZM84.0086 6.2105L81.3642 11.6162H95.4684V14.7133C94.2355 14.2059 92.119 13.9339 90.0902 13.9013C80.2174 13.9013 75.7547 17.467 75.7547 21.8631C75.7547 26.2612 80.1297 29.8259 90.0902 29.8259C91.4124 29.8024 93.7921 29.4082 95.025 28.6196L96.084 29.4072H104.458V6.2105H84.0086ZM90.0918 24.7299C87.063 24.7299 84.6067 23.4463 84.6067 21.8631C84.6067 20.2809 87.063 18.9972 90.0918 18.9972C93.1206 18.9972 95.5784 20.2809 95.5784 21.8631C95.5784 23.4473 93.1206 24.7299 90.0918 24.7299ZM164.89 22.02C167.115 20.2992 168.498 18.1089 168.498 15.7045C168.502 14.1459 167.93 12.6086 166.828 11.2178L169.793 11.172L172.218 5.75102H152.915C145.169 5.75102 138.532 9.40744 137.283 14.1468C136.57 6.15956 126.403 6.20948 124.278 6.20948C122.072 6.20948 119.693 6.8289 118.019 7.50435C117.313 7.89862 116.257 7.78554 115.814 6.20948H106.911V29.4082H116.343V15.3306C116.343 13.0221 120.664 12.2335 121.985 12.2335C123.305 12.2335 127.978 12.5147 127.978 15.7799V29.4061H137.323V25.3962L144.85 29.0058C145.805 27.7974 147.352 26.8215 149.256 26.2265C151.16 25.6315 153.315 25.4501 155.395 25.7098C157.475 25.9695 159.366 26.6561 160.778 27.6651C162.191 28.6741 163.049 29.9503 163.222 31.2996C163.395 32.6488 162.873 33.9971 161.736 35.1394C160.598 36.2816 158.908 37.1553 156.922 37.6274C154.935 38.0996 152.762 38.1443 150.732 37.7549C148.703 37.3654 146.928 36.563 145.678 35.4699L138.945 39.6581C140.734 41.0165 142.967 42.1082 145.487 42.8566C148.006 43.605 150.752 43.9918 153.531 43.99C164.064 43.99 172.602 38.5355 172.602 31.8064C172.605 29.9035 171.909 28.0268 170.569 26.327C169.23 24.6273 167.285 23.1521 164.89 22.02ZM137.325 25.2373V17.3927C137.91 19.3008 139.478 20.991 141.456 22.3765C139.956 23.16 138.408 24.192 137.325 25.2373ZM152.915 19.6462C152.093 19.6584 151.276 19.5656 150.51 19.3731C149.745 19.1806 149.048 18.8924 148.46 18.5254C147.871 18.1584 147.404 17.72 147.084 17.2359C146.765 16.7519 146.6 16.2319 146.6 15.7066C146.599 15.1813 146.763 14.6613 147.082 14.177C147.4 13.6927 147.867 13.254 148.455 12.8866C149.043 12.5192 149.74 12.2305 150.504 12.0376C151.269 11.8446 152.087 11.7512 152.909 11.7629C154.521 11.7857 156.056 12.2108 157.184 12.9471C158.312 13.6834 158.944 14.6724 158.944 15.7025C158.945 16.7327 158.315 17.7221 157.188 18.4592C156.061 19.1962 154.528 19.6223 152.915 19.6462ZM188.706 0.0937231C186.69 0.0937231 184.987 1.08296 184.987 2.4247C184.987 3.77968 186.69 4.76892 188.706 4.76892C190.7 4.76892 192.403 3.77968 192.403 2.4247C192.403 1.08398 190.7 0.0937231 188.706 0.0937231ZM188.706 4.37974C187.03 4.37974 185.722 3.55147 185.722 2.42572C185.722 1.31932 187.03 0.48392 188.706 0.48392C190.36 0.48392 191.668 1.31932 191.668 2.42572C191.668 3.55045 190.36 4.37974 188.706 4.37974Z" fill="#999999"/>
</svg>
